<svg width="130" height="33" viewBox="0 0 130 33" fill="none" xmlns="http://www.w3.org/2000/svg">
<path d="M41.9412 18.0046C41.5557 17.8256 41.2232 17.55 40.9758 17.2044C40.7388 16.8791 40.6121 16.4865 40.6144 16.0841C40.6099 15.7761 40.6796 15.4716 40.8175 15.1962C40.9554 14.9208 41.1576 14.6826 41.4069 14.5018C42.0423 14.0483 42.7836 13.7657 43.5597 13.6809L45.759 13.3737V12.9478C45.759 11.9445 45.1773 11.442 44.014 11.4403C43.6351 11.4184 43.2582 11.5081 42.9298 11.6985C42.6776 11.8593 42.4719 12.0836 42.3336 12.3489C42.3081 12.4237 42.2646 12.4911 42.2071 12.5451C42.154 12.5835 42.0891 12.6018 42.0238 12.5967H41.4533C41.4109 12.5974 41.3688 12.5892 41.3298 12.5728C41.2907 12.5563 41.2554 12.532 41.2262 12.5012C41.1953 12.4721 41.1709 12.4369 41.1544 12.3978C41.138 12.3586 41.1299 12.3165 41.1307 12.2741C41.156 11.9903 41.2657 11.7206 41.4456 11.4997C41.701 11.1641 42.0365 10.8979 42.4213 10.7253C42.9253 10.4915 43.4768 10.3784 44.0321 10.3949C45.1265 10.3949 45.9104 10.653 46.3836 11.1693C46.8601 11.6871 47.1149 12.3709 47.0935 13.0743V17.811C47.0953 17.8555 47.0877 17.8998 47.0713 17.9412C47.0548 17.9825 47.0298 18.02 46.998 18.0511C46.9668 18.0828 46.9294 18.1077 46.888 18.1241C46.8467 18.1406 46.8024 18.1482 46.7579 18.1466H46.1126C46.0689 18.1486 46.0252 18.1412 45.9846 18.1247C45.9441 18.1082 45.9076 18.0831 45.8777 18.0511C45.848 18.0188 45.8249 17.981 45.8099 17.9398C45.7948 17.8986 45.788 17.8548 45.7899 17.811V17.1657C45.5513 17.5095 45.2287 17.7868 44.8529 17.971C44.3589 18.2038 43.8163 18.3145 43.2706 18.2937C42.8113 18.2992 42.3567 18.2003 41.9412 18.0046ZM45.142 16.5978C45.5525 16.177 45.759 15.5653 45.759 14.765V14.3546L44.045 14.6128C43.4831 14.664 42.9385 14.8338 42.4471 15.1109C42.2831 15.1955 42.1447 15.3225 42.0464 15.4788C41.9481 15.635 41.8935 15.8147 41.8882 15.9992C41.8829 16.1837 41.9272 16.3662 42.0164 16.5278C42.1057 16.6893 42.2366 16.8241 42.3955 16.9179C42.743 17.1383 43.1482 17.2506 43.5597 17.2405C43.8536 17.2489 44.146 17.196 44.4184 17.0854C44.6908 16.9747 44.9372 16.8087 45.142 16.5978Z" fill="black"/>
<path d="M49.3263 18.0536C49.2945 18.0226 49.2695 17.9851 49.253 17.9438C49.2366 17.9024 49.229 17.8581 49.2308 17.8136V8.08462C49.226 8.03715 49.232 7.98921 49.2486 7.94447C49.2652 7.89972 49.2917 7.85936 49.3263 7.82649C49.391 7.76961 49.4752 7.74001 49.5612 7.74388H50.2065C50.2513 7.7417 50.296 7.74886 50.3379 7.76491C50.3797 7.78097 50.4178 7.80556 50.4496 7.83713C50.4814 7.8687 50.5063 7.90656 50.5227 7.94828C50.539 7.99 50.5465 8.03467 50.5447 8.07946V17.811C50.5458 17.8556 50.5377 17.8999 50.5211 17.9413C50.5045 17.9827 50.4795 18.0202 50.4479 18.0516C50.4162 18.083 50.3785 18.1076 50.337 18.124C50.2955 18.1403 50.2511 18.148 50.2065 18.1466H49.5612C49.5178 18.148 49.4745 18.1405 49.4341 18.1245C49.3937 18.1085 49.357 18.0844 49.3263 18.0536Z" fill="black"/>
<path d="M53.5313 18.0046C53.1455 17.825 52.8122 17.5495 52.5633 17.2044C52.327 16.8789 52.2013 16.4863 52.2045 16.0841C52.1995 15.7763 52.2687 15.4719 52.4061 15.1964C52.5436 14.921 52.7454 14.6828 52.9944 14.5018C53.631 14.0487 54.373 13.7661 55.1497 13.6809L57.3464 13.3737V12.9478C57.3464 11.9445 56.7656 11.442 55.6041 11.4403C55.2252 11.4184 54.8482 11.5081 54.5199 11.6984C54.2676 11.8553 54.0604 12.075 53.9185 12.336C53.8947 12.411 53.8521 12.4786 53.7946 12.5322C53.7413 12.5702 53.6765 12.5885 53.6113 12.5838H53.0408C52.9983 12.5849 52.9561 12.577 52.917 12.5605C52.8778 12.5441 52.8426 12.5195 52.8137 12.4883C52.7828 12.4592 52.7584 12.424 52.7419 12.3848C52.7255 12.3457 52.7174 12.3036 52.7182 12.2612C52.7424 11.9771 52.8522 11.7071 53.0331 11.4868C53.2881 11.1518 53.6226 10.8857 54.0062 10.7124C54.5102 10.4786 55.0617 10.3655 55.617 10.382C56.7114 10.382 57.4953 10.6401 57.9685 11.1564C58.4469 11.6732 58.7028 12.3575 58.681 13.0614V17.811C58.6821 17.8556 58.674 17.8999 58.6574 17.9413C58.6407 17.9826 58.6158 18.0202 58.5842 18.0516C58.5525 18.083 58.5148 18.1076 58.4733 18.124C58.4318 18.1403 58.3874 18.148 58.3428 18.1466H57.6975C57.6542 18.1486 57.6109 18.1411 57.5707 18.1246C57.5306 18.1081 57.4946 18.083 57.4652 18.0511C57.4355 18.0188 57.4124 17.981 57.3973 17.9398C57.3823 17.8986 57.3755 17.8548 57.3774 17.811V17.1657C57.1371 17.509 56.8139 17.7861 56.4378 17.971C55.9439 18.2038 55.4012 18.3145 54.8555 18.2937C54.3979 18.2985 53.9452 18.1996 53.5313 18.0046ZM56.7321 16.5978C57.1425 16.177 57.3464 15.5653 57.3464 14.765V14.3546L55.6325 14.6127C55.0707 14.6644 54.5262 14.8342 54.0346 15.1109C53.8753 15.1969 53.7413 15.3232 53.6461 15.4772C53.551 15.6313 53.498 15.8076 53.4925 15.9886C53.4848 16.1726 53.5265 16.3553 53.6132 16.5178C53.6999 16.6803 53.8285 16.8166 53.9856 16.9127C54.3328 17.1339 54.7382 17.2463 55.1497 17.2354C55.4433 17.2444 55.7354 17.1923 56.0078 17.0826C56.2802 16.9729 56.5268 16.8078 56.7321 16.5978Z" fill="black"/>
<path d="M60.8983 18.0537C60.8673 18.0221 60.8431 17.9845 60.8271 17.9432C60.8111 17.9019 60.8038 17.8578 60.8054 17.8136V10.8699C60.8037 10.8252 60.8111 10.7807 60.827 10.739C60.843 10.6973 60.8673 10.6593 60.8983 10.6272C60.9301 10.5956 60.968 10.5707 61.0098 10.5543C61.0515 10.5379 61.0962 10.5302 61.141 10.5317H61.7708C61.8176 10.5275 61.8647 10.5331 61.9092 10.5482C61.9537 10.5633 61.9945 10.5876 62.029 10.6195C62.0602 10.6544 62.0841 10.6953 62.0991 10.7396C62.1142 10.784 62.1202 10.8309 62.1167 10.8776V11.5126C62.3922 11.1651 62.739 10.8808 63.1338 10.6789C63.585 10.4688 64.0793 10.368 64.5767 10.3846C64.9849 10.3621 65.3929 10.4313 65.7708 10.5872C66.1488 10.7431 66.4869 10.9817 66.7605 11.2855C67.3014 11.9582 67.5769 12.8058 67.5349 13.668V17.811C67.536 17.8556 67.528 17.8999 67.5113 17.9413C67.4947 17.9827 67.4697 18.0202 67.4381 18.0516C67.4064 18.083 67.3687 18.1077 67.3272 18.124C67.2857 18.1403 67.2413 18.148 67.1968 18.1466H66.523C66.4786 18.148 66.4343 18.1403 66.3929 18.124C66.3516 18.1076 66.314 18.0829 66.2825 18.0515C66.2511 18.02 66.2264 17.9825 66.2101 17.9411C66.1937 17.8998 66.186 17.8555 66.1875 17.811V13.7558C66.2227 13.1637 66.039 12.5794 65.6712 12.1141C65.4851 11.9143 65.2572 11.7582 65.0037 11.6569C64.7502 11.5556 64.4775 11.5116 64.205 11.5281C63.928 11.5155 63.6516 11.562 63.3939 11.6643C63.1362 11.7667 62.9033 11.9226 62.7104 12.1218C62.3204 12.5738 62.1214 13.1597 62.1554 13.7558V17.811C62.1565 17.8556 62.1485 17.8999 62.1318 17.9413C62.1152 17.9827 62.0903 18.0202 62.0586 18.0516C62.027 18.083 61.9893 18.1077 61.9478 18.124C61.9063 18.1403 61.8619 18.148 61.8173 18.1466H61.1436C61.0985 18.1488 61.0535 18.1417 61.0113 18.1257C60.9691 18.1097 60.9306 18.0852 60.8983 18.0537Z" fill="black"/>
<path d="M69.7496 18.0537C69.7178 18.0226 69.6928 17.9851 69.6764 17.9438C69.6599 17.9024 69.6523 17.8581 69.6541 17.8136V10.8699C69.6523 10.825 69.6598 10.7802 69.6763 10.7385C69.6927 10.6967 69.7177 10.6588 69.7496 10.6272C69.7807 10.5954 69.8182 10.5704 69.8595 10.5539C69.9009 10.5375 69.9452 10.5299 69.9897 10.5317H70.6066C70.65 10.5297 70.6933 10.5372 70.7334 10.5537C70.7735 10.5702 70.8096 10.5953 70.839 10.6272C70.8991 10.6933 70.9307 10.7806 70.9267 10.8699V11.3577C71.1816 11.038 71.5081 10.7827 71.8798 10.6123C72.2515 10.4419 72.658 10.3613 73.0666 10.3768C74.1405 10.3768 74.9028 10.826 75.3537 11.7243C75.5907 11.3112 75.9373 10.9717 76.3552 10.7434C76.8015 10.4972 77.304 10.3709 77.8137 10.3768C78.1808 10.3649 78.5462 10.432 78.8851 10.5737C79.224 10.7153 79.5286 10.9281 79.778 11.1977C80.284 11.7501 80.537 12.5434 80.537 13.5777V17.811C80.538 17.8556 80.53 17.8999 80.5134 17.9413C80.4967 17.9827 80.4718 18.0202 80.4401 18.0516C80.4085 18.083 80.3708 18.1077 80.3293 18.124C80.2878 18.1403 80.2434 18.148 80.1988 18.1466H79.569C79.5256 18.1463 79.4827 18.1373 79.4429 18.1201C79.403 18.103 79.367 18.078 79.3369 18.0468C79.3069 18.0155 79.2834 17.9785 79.2678 17.9381C79.2522 17.8976 79.2449 17.8544 79.2463 17.811V13.7119C79.2463 12.9306 79.0845 12.3713 78.761 12.034C78.5975 11.8628 78.3995 11.7283 78.1801 11.6393C77.9608 11.5503 77.725 11.5089 77.4884 11.5178C77.2619 11.5152 77.0372 11.5597 76.8288 11.6486C76.6204 11.7375 76.4328 11.8687 76.2778 12.034C75.9422 12.3825 75.7615 12.9349 75.7615 13.699V17.811C75.7633 17.8556 75.7559 17.9 75.7397 17.9416C75.7235 17.9831 75.6988 18.0208 75.6673 18.0523C75.6358 18.0839 75.598 18.1085 75.5565 18.1247C75.515 18.141 75.4705 18.1484 75.426 18.1466H74.7806C74.7362 18.148 74.6919 18.1403 74.6505 18.124C74.6092 18.1076 74.5716 18.0829 74.5402 18.0515C74.5087 18.02 74.484 17.9825 74.4677 17.9411C74.4513 17.8997 74.4436 17.8555 74.4451 17.811V13.7119C74.4451 12.9375 74.2747 12.3825 73.9288 12.0418C73.7672 11.8737 73.5726 11.741 73.357 11.6522C73.1415 11.5633 72.9099 11.5202 72.6769 11.5255C72.4503 11.5231 72.2257 11.5677 72.0174 11.6566C71.809 11.7455 71.6213 11.8766 71.4662 12.0418C71.1306 12.386 70.9629 12.9375 70.9629 13.6964V17.811C70.9639 17.8556 70.9559 17.8999 70.9393 17.9413C70.9226 17.9827 70.8977 18.0202 70.8661 18.0516C70.8344 18.083 70.7967 18.1077 70.7552 18.124C70.7137 18.1403 70.6693 18.148 70.6247 18.1466H69.9794C69.9368 18.1473 69.8945 18.1394 69.8551 18.1235C69.8156 18.1075 69.7798 18.0838 69.7496 18.0537Z" fill="black"/>
<path d="M83.2705 17.3877C82.6688 16.7275 82.338 15.8649 82.3439 14.9716L82.3284 14.3418L82.3439 13.7119C82.3391 12.8148 82.677 11.9497 83.2886 11.2932C83.8806 10.6892 84.7032 10.3863 85.7564 10.3846C86.8095 10.3829 87.633 10.6858 88.2267 11.2932C88.8382 11.9497 89.1762 12.8148 89.1714 13.7119C89.1895 13.9262 89.1998 14.1353 89.1998 14.3418C89.1998 14.5483 89.1998 14.7574 89.1714 14.9716C89.1757 15.8655 88.843 16.7282 88.2396 17.3877C87.6596 17.9935 86.8319 18.2963 85.7564 18.2963C84.6808 18.2963 83.8522 17.9935 83.2705 17.3877ZM87.2406 16.6133C87.6382 16.134 87.849 15.5271 87.8343 14.9045C87.8343 14.809 87.8498 14.6231 87.8498 14.3495C87.8498 14.0759 87.8498 13.89 87.8343 13.792C87.8484 13.1703 87.6376 12.5644 87.2406 12.0857C86.8395 11.7044 86.3072 11.4918 85.7538 11.4918C85.2003 11.4918 84.6681 11.7044 84.2669 12.0857C83.87 12.5644 83.6591 13.1703 83.6732 13.792V14.3495V14.9045C83.6597 15.5269 83.8704 16.1334 84.2669 16.6133C84.6689 16.9929 85.2009 17.2043 85.7538 17.2043C86.3067 17.2043 86.8386 16.9929 87.2406 16.6133Z" fill="black"/>
<path d="M91.1384 18.0537C91.1065 18.0226 91.0816 17.9851 91.0651 17.9438C91.0487 17.9024 91.0411 17.8581 91.0429 17.8136V10.8828C91.0401 10.8355 91.0472 10.7881 91.0636 10.7437C91.0801 10.6993 91.1055 10.6588 91.1384 10.6246C91.169 10.5909 91.2065 10.5642 91.2484 10.5464C91.2903 10.5286 91.3355 10.52 91.381 10.5214H91.9954C92.0425 10.5175 92.0898 10.5239 92.1342 10.5401C92.1786 10.5564 92.2189 10.5821 92.2523 10.6155C92.2857 10.6489 92.3114 10.6892 92.3277 10.7336C92.344 10.778 92.3503 10.8254 92.3464 10.8724V11.5178C92.7474 10.8552 93.4263 10.5231 94.3831 10.5214H94.9561C95.0016 10.5164 95.0477 10.5218 95.0908 10.5371C95.134 10.5523 95.1731 10.5771 95.2054 10.6096C95.2376 10.6421 95.2621 10.6815 95.2771 10.7247C95.292 10.768 95.297 10.8141 95.2917 10.8595V11.4094C95.2957 11.4987 95.2641 11.5859 95.204 11.652C95.1707 11.6861 95.1303 11.7124 95.0857 11.7289C95.041 11.7454 94.9932 11.7518 94.9458 11.7475H94.1095C93.8773 11.7349 93.645 11.7701 93.427 11.8509C93.209 11.9317 93.0099 12.0564 92.8421 12.2173C92.6837 12.3876 92.5611 12.588 92.4817 12.8067C92.4024 13.0253 92.3678 13.2576 92.38 13.4899V17.811C92.3815 17.8559 92.3732 17.9006 92.3559 17.942C92.3385 17.9835 92.3124 18.0207 92.2793 18.0511C92.2449 18.0834 92.2043 18.1086 92.1599 18.125C92.1156 18.1414 92.0684 18.1487 92.0212 18.1466H91.3784C91.3342 18.1481 91.2902 18.1406 91.2489 18.1247C91.2077 18.1087 91.1701 18.0845 91.1384 18.0537Z" fill="black"/>
<path d="M97.2199 18.0046C96.8342 17.825 96.5009 17.5495 96.2519 17.2044C96.0157 16.8789 95.8899 16.4863 95.8931 16.0841C95.8882 15.7763 95.9573 15.4719 96.0948 15.1964C96.2323 14.921 96.434 14.6828 96.683 14.5018C97.3197 14.0487 98.0617 13.7661 98.8384 13.6809L101.035 13.3737V12.9478C101.035 11.9445 100.454 11.442 99.2927 11.4403C98.9139 11.4184 98.5369 11.5081 98.2086 11.6984C97.9563 11.8553 97.7491 12.075 97.6071 12.336C97.5834 12.411 97.5407 12.4786 97.4832 12.5322C97.43 12.5702 97.3652 12.5885 97.3 12.5838H96.7269C96.6845 12.5845 96.6424 12.5763 96.6033 12.5599C96.5642 12.5434 96.529 12.5191 96.4997 12.4883C96.4697 12.4587 96.446 12.4233 96.43 12.3843C96.4141 12.3452 96.4062 12.3034 96.4068 12.2612C96.4311 11.9771 96.5409 11.7071 96.7217 11.4868C96.9768 11.1518 97.3112 10.8857 97.6949 10.7124C98.1988 10.4786 98.7503 10.3655 99.3056 10.382C100.4 10.382 101.184 10.6401 101.657 11.1564C102.136 11.6732 102.391 12.3575 102.37 13.0614V17.811C102.371 17.8556 102.363 17.8999 102.346 17.9413C102.329 17.9826 102.304 18.0202 102.273 18.0516C102.241 18.083 102.203 18.1076 102.162 18.124C102.12 18.1403 102.076 18.148 102.031 18.1466H101.386C101.343 18.1486 101.3 18.1411 101.259 18.1246C101.219 18.1081 101.183 18.083 101.154 18.0511C101.124 18.019 101.1 17.9813 101.085 17.9401C101.069 17.8989 101.062 17.855 101.063 17.811V17.1657C100.825 17.5095 100.502 17.7868 100.126 17.971C99.6325 18.2038 99.0898 18.3145 98.5441 18.2937C98.0866 18.2985 97.6339 18.1996 97.2199 18.0046ZM100.413 16.5978C100.823 16.177 101.027 15.5653 101.027 14.765V14.3546L99.3134 14.6127C98.7516 14.6644 98.2071 14.8342 97.7155 15.1109C97.5562 15.1969 97.4222 15.3232 97.3271 15.4772C97.2319 15.6313 97.1789 15.8076 97.1735 15.9886C97.1658 16.1726 97.2074 16.3553 97.2941 16.5178C97.3808 16.6803 97.5094 16.8166 97.6665 16.9127C98.0137 17.1339 98.4191 17.2463 98.8307 17.2354C99.1242 17.2444 99.4164 17.1923 99.6887 17.0826C99.9611 16.9729 100.208 16.8078 100.413 16.5978Z" fill="black"/>
<path d="M105.276 18.0046C104.891 17.8256 104.558 17.55 104.311 17.2044C104.075 16.8789 103.949 16.4863 103.952 16.0841C103.947 15.7763 104.016 15.4719 104.154 15.1964C104.291 14.921 104.493 14.6828 104.742 14.5018C105.377 14.0483 106.119 13.7657 106.895 13.6809L109.094 13.3737V12.9478C109.094 11.9445 108.512 11.442 107.349 11.4403C106.97 11.4184 106.593 11.5081 106.265 11.6984C106.013 11.8554 105.807 12.0751 105.666 12.336C105.641 12.4108 105.597 12.4782 105.54 12.5322C105.486 12.5706 105.422 12.5889 105.356 12.5838H104.786C104.743 12.5845 104.701 12.5763 104.662 12.5599C104.623 12.5434 104.588 12.5191 104.559 12.4883C104.528 12.4592 104.503 12.424 104.487 12.3848C104.47 12.3457 104.462 12.3036 104.463 12.2612C104.488 11.9774 104.598 11.7077 104.778 11.4868C105.034 11.1518 105.369 10.8857 105.754 10.7124C106.258 10.4786 106.809 10.3655 107.365 10.382C108.459 10.382 109.243 10.6401 109.716 11.1564C110.193 11.6742 110.447 12.358 110.426 13.0614V17.811C110.428 17.8555 110.42 17.8998 110.404 17.9412C110.387 17.9825 110.362 18.02 110.33 18.0511C110.299 18.0828 110.262 18.1077 110.22 18.1241C110.179 18.1406 110.135 18.1482 110.09 18.1466H109.448C109.404 18.1486 109.36 18.1412 109.32 18.1247C109.279 18.1082 109.243 18.0831 109.213 18.0511C109.183 18.0188 109.16 17.981 109.145 17.9398C109.13 17.8986 109.123 17.8548 109.125 17.811V17.1657C108.886 17.5095 108.564 17.7868 108.188 17.971C107.695 18.2043 107.153 18.3159 106.608 18.2963C106.148 18.3013 105.692 18.2016 105.276 18.0046ZM108.477 16.5978C108.888 16.177 109.094 15.5653 109.094 14.765V14.3546L107.38 14.6128C106.818 14.664 106.274 14.8338 105.782 15.1109C105.618 15.1955 105.48 15.3225 105.381 15.4788C105.283 15.635 105.229 15.8147 105.223 15.9992C105.218 16.1837 105.262 16.3662 105.351 16.5278C105.441 16.6893 105.572 16.824 105.731 16.9179C106.078 17.1383 106.483 17.2506 106.895 17.2405C107.189 17.2489 107.481 17.196 107.753 17.0854C108.026 16.9747 108.272 16.8087 108.477 16.5978Z" fill="black"/>
<path d="M112.661 18.0536C112.629 18.0226 112.605 17.9851 112.588 17.9438C112.572 17.9024 112.564 17.8581 112.566 17.8136V8.08462C112.561 8.03716 112.567 7.98922 112.584 7.94447C112.6 7.89972 112.627 7.85937 112.661 7.82649C112.727 7.76671 112.813 7.73517 112.901 7.73873H113.547C113.591 7.73654 113.636 7.7437 113.678 7.75975C113.72 7.77581 113.758 7.80041 113.79 7.83198C113.822 7.86355 113.846 7.9014 113.863 7.94312C113.879 7.98484 113.887 8.02952 113.885 8.0743V17.811C113.886 17.8556 113.878 17.8999 113.861 17.9413C113.845 17.9827 113.82 18.0202 113.788 18.0516C113.756 18.083 113.719 18.1076 113.677 18.124C113.636 18.1403 113.591 18.148 113.547 18.1466H112.901C112.857 18.1485 112.813 18.1413 112.772 18.1253C112.73 18.1093 112.693 18.0849 112.661 18.0536Z" fill="black"/>
<path d="M116.711 17.367C116.114 16.7458 115.787 15.8983 115.731 14.8244L115.715 14.3263L115.731 13.8435C115.739 12.9114 116.088 12.0144 116.711 11.3216C117.021 11.0065 117.394 10.7602 117.805 10.5988C118.217 10.4373 118.658 10.3643 119.099 10.3846C120.173 10.3846 121.006 10.7288 121.598 11.4171C122.19 12.1055 122.485 13.0322 122.483 14.1972V14.4553C122.485 14.4999 122.477 14.5443 122.461 14.5858C122.444 14.6273 122.42 14.665 122.388 14.6967C122.357 14.7283 122.319 14.7532 122.278 14.7699C122.237 14.7865 122.192 14.7945 122.148 14.7935H117.062V14.9251C117.077 15.5163 117.282 16.0869 117.648 16.5513C117.818 16.7687 118.037 16.943 118.287 17.0601C118.537 17.1771 118.81 17.2337 119.086 17.2251C119.476 17.2455 119.865 17.1561 120.207 16.9669C120.456 16.8199 120.677 16.6283 120.857 16.4016C120.911 16.318 120.981 16.2461 121.064 16.19C121.146 16.1599 121.234 16.1476 121.322 16.1538H121.967C122.049 16.1515 122.129 16.177 122.194 16.2261C122.224 16.2478 122.249 16.2766 122.265 16.3098C122.282 16.3431 122.29 16.3799 122.29 16.4171C122.251 16.7131 122.112 16.9868 121.895 17.1915C121.579 17.5262 121.197 17.7901 120.772 17.9659C120.248 18.1953 119.681 18.308 119.109 18.2963C118.667 18.3182 118.225 18.2468 117.812 18.0867C117.398 17.9266 117.024 17.6814 116.711 17.367ZM121.151 13.7997V13.7558C121.178 13.1494 120.979 12.5545 120.594 12.0857C120.409 11.8725 120.179 11.7037 119.92 11.592C119.661 11.4802 119.381 11.4284 119.099 11.4403C118.817 11.4265 118.536 11.4774 118.277 11.5893C118.018 11.7012 117.788 11.871 117.605 12.0857C117.228 12.5587 117.036 13.1519 117.062 13.7558V13.7997H121.151Z" fill="black"/>
<path d="M125.173 17.9659C124.776 17.7964 124.423 17.5386 124.14 17.2121C123.957 17.0232 123.839 16.7809 123.802 16.5203C123.799 16.4768 123.807 16.4332 123.825 16.3934C123.843 16.3537 123.871 16.3192 123.906 16.2932C123.967 16.2409 124.044 16.2117 124.125 16.2106H124.739C124.788 16.2076 124.836 16.2183 124.879 16.2415C124.932 16.2776 124.979 16.322 125.018 16.3732C125.228 16.6335 125.484 16.8523 125.774 17.0185C126.122 17.1892 126.508 17.2691 126.895 17.2508C127.336 17.2725 127.775 17.1715 128.162 16.9591C128.311 16.8746 128.435 16.7508 128.518 16.601C128.602 16.4512 128.643 16.2814 128.637 16.1099C128.649 15.8954 128.575 15.6849 128.433 15.5239C128.238 15.3423 128.006 15.2065 127.752 15.1264C127.289 14.9705 126.816 14.8438 126.337 14.747C125.487 14.5611 124.885 14.2927 124.53 13.9416C124.356 13.7613 124.221 13.5475 124.132 13.3132C124.043 13.0789 124.003 12.829 124.014 12.5787C124.017 12.2057 124.128 11.8417 124.334 11.5306C124.574 11.1751 124.906 10.8914 125.294 10.7098C125.769 10.4897 126.289 10.3819 126.812 10.3949C127.353 10.3806 127.891 10.4855 128.387 10.702C128.763 10.8658 129.098 11.1108 129.368 11.4197C129.549 11.6078 129.665 11.8495 129.698 12.1089C129.699 12.1501 129.691 12.1911 129.674 12.2289C129.658 12.2668 129.633 12.3006 129.603 12.3283C129.541 12.3861 129.46 12.4176 129.375 12.416H128.807C128.749 12.4209 128.689 12.4083 128.638 12.3798C128.586 12.3514 128.543 12.3083 128.516 12.256C128.348 12.0701 128.209 11.9256 128.098 11.8249C127.953 11.7075 127.786 11.6198 127.607 11.5668C127.346 11.4881 127.074 11.4515 126.802 11.4584C126.417 11.4291 126.033 11.5281 125.71 11.7397C125.587 11.8333 125.489 11.9547 125.422 12.0938C125.356 12.2329 125.324 12.3858 125.328 12.5399C125.323 12.7254 125.38 12.9072 125.49 13.0562C125.658 13.2389 125.869 13.375 126.105 13.4511C126.543 13.613 126.994 13.7381 127.452 13.8254C128.382 14.0216 129.037 14.3004 129.424 14.6618C129.614 14.8391 129.764 15.0549 129.864 15.2949C129.964 15.5349 130.011 15.7934 130.003 16.0531C130.006 16.4617 129.881 16.8611 129.644 17.194C129.373 17.5608 129.002 17.8413 128.575 18.002C128.035 18.2077 127.46 18.3067 126.882 18.2937C126.295 18.3135 125.711 18.2015 125.173 17.9659Z" fill="black"/>
<path d="M41.6753 25.8647C41.6658 25.8548 41.6584 25.843 41.6535 25.8302C41.6487 25.8173 41.6464 25.8036 41.6469 25.7899V23.7016H41.2236C41.2098 23.7021 41.1961 23.6998 41.1833 23.6949C41.1704 23.6901 41.1587 23.6827 41.1487 23.6732C41.1385 23.6632 41.1306 23.6511 41.1257 23.6377C41.1208 23.6243 41.1189 23.61 41.1203 23.5957V23.5312C41.1193 23.517 41.1213 23.5028 41.1262 23.4895C41.1311 23.4761 41.1388 23.4639 41.1487 23.4538C41.1587 23.4443 41.1704 23.4369 41.1833 23.432C41.1961 23.4272 41.2098 23.4249 41.2236 23.4254H41.6469V23.1673C41.635 22.9665 41.6904 22.7676 41.8043 22.6019C41.8746 22.5255 41.962 22.4669 42.0594 22.4309C42.1569 22.395 42.2614 22.3829 42.3645 22.3954H42.6097C42.6237 22.3943 42.6377 22.3962 42.6509 22.4009C42.6641 22.4057 42.6761 22.4132 42.6861 22.423C42.6961 22.4328 42.704 22.4446 42.709 22.4577C42.7141 22.4707 42.7163 22.4847 42.7156 22.4987V22.5658C42.7163 22.5798 42.7141 22.5938 42.709 22.6068C42.704 22.6199 42.6961 22.6317 42.6861 22.6415C42.6761 22.6513 42.6641 22.6588 42.6509 22.6636C42.6377 22.6683 42.6237 22.6702 42.6097 22.6691H42.3645C42.3025 22.6622 42.2399 22.67 42.1815 22.692C42.1232 22.714 42.0709 22.7495 42.0289 22.7955C41.9579 22.9154 41.9255 23.0542 41.936 23.1931V23.4512H42.5633C42.577 23.4507 42.5907 23.453 42.6035 23.4578C42.6164 23.4627 42.6282 23.4701 42.6381 23.4796C42.648 23.4898 42.6557 23.5019 42.6606 23.5153C42.6655 23.5286 42.6675 23.5428 42.6665 23.557V23.6216C42.6679 23.6358 42.666 23.6501 42.6611 23.6635C42.6562 23.6769 42.6483 23.689 42.6381 23.699C42.6282 23.7085 42.6164 23.7159 42.6035 23.7207C42.5907 23.7256 42.577 23.7279 42.5633 23.7274H41.936V25.8157C41.9365 25.8294 41.9342 25.8431 41.9294 25.856C41.9245 25.8688 41.9171 25.8806 41.9076 25.8905C41.8982 25.9009 41.8866 25.909 41.8736 25.9144C41.8607 25.9197 41.8467 25.9221 41.8327 25.9215H41.7501C41.7338 25.9193 41.7184 25.9129 41.7052 25.903C41.6921 25.893 41.6818 25.8798 41.6753 25.8647Z" fill="#213A74"/>
<path d="M43.2447 25.6402C43.0577 25.4256 42.955 25.1504 42.9556 24.8658V24.4605C42.9545 24.1758 43.0573 23.9004 43.2447 23.6861C43.4527 23.4918 43.7267 23.3837 44.0114 23.3837C44.296 23.3837 44.5701 23.4918 44.778 23.6861C44.9637 23.9013 45.0655 24.1763 45.0646 24.4605C45.0646 24.4915 45.0646 24.5586 45.0646 24.6593C45.0646 24.7599 45.0646 24.8271 45.0646 24.8606C45.065 25.1448 44.9633 25.4196 44.778 25.635C44.5701 25.8294 44.296 25.9375 44.0114 25.9375C43.7267 25.9375 43.4527 25.8294 43.2447 25.635V25.6402ZM44.5535 25.4517C44.7019 25.281 44.7811 25.0609 44.7755 24.8348C44.7755 24.8038 44.7755 24.7445 44.7755 24.6593C44.7755 24.5741 44.7755 24.5173 44.7755 24.4837C44.7809 24.2584 44.7017 24.0392 44.5535 23.8694C44.4062 23.7315 44.2119 23.6547 44.0101 23.6547C43.8083 23.6547 43.6141 23.7315 43.4667 23.8694C43.3192 24.0394 43.2409 24.2587 43.2473 24.4837V24.6593V24.8348C43.241 25.0606 43.3192 25.2806 43.4667 25.4517C43.6141 25.5897 43.8083 25.6664 44.0101 25.6664C44.2119 25.6664 44.4062 25.5897 44.5535 25.4517Z" fill="#213A74"/>
<path d="M46.0222 25.6841C45.9152 25.509 45.8639 25.3056 45.8751 25.1007V23.7016H45.506C45.4922 23.7021 45.4785 23.6998 45.4657 23.695C45.4528 23.6901 45.4411 23.6827 45.4311 23.6732C45.4206 23.6634 45.4123 23.6513 45.407 23.6379C45.4016 23.6246 45.3993 23.6102 45.4001 23.5958V23.5312C45.3995 23.5169 45.4019 23.5025 45.4072 23.4892C45.4126 23.4758 45.4207 23.4637 45.4311 23.4538C45.4411 23.4443 45.4528 23.4369 45.4657 23.4321C45.4785 23.4272 45.4922 23.4249 45.506 23.4254H45.8751V22.6278C45.8746 22.614 45.8769 22.6003 45.8817 22.5875C45.8866 22.5746 45.894 22.5629 45.9035 22.5529C45.9248 22.5341 45.9525 22.524 45.9809 22.5245H46.0609C46.0894 22.524 46.117 22.5341 46.1384 22.5529C46.1479 22.5629 46.1553 22.5746 46.1601 22.5875C46.165 22.6003 46.1673 22.614 46.1668 22.6278V23.4254H46.7553C46.7691 23.4249 46.7828 23.4272 46.7956 23.4321C46.8085 23.4369 46.8202 23.4443 46.8302 23.4538C46.8495 23.4749 46.8597 23.5027 46.8586 23.5312V23.5958C46.8593 23.6099 46.8571 23.6241 46.8522 23.6374C46.8474 23.6507 46.8399 23.6629 46.8302 23.6732C46.8202 23.6827 46.8085 23.6901 46.7956 23.695C46.7828 23.6998 46.7691 23.7021 46.7553 23.7016H46.1668V25.0826C46.157 25.2216 46.1875 25.3605 46.2545 25.4827C46.2867 25.5293 46.3307 25.5665 46.3819 25.5905C46.4332 25.6145 46.4899 25.6245 46.5462 25.6195H46.8044C46.8181 25.619 46.8318 25.6213 46.8447 25.6262C46.8575 25.631 46.8693 25.6384 46.8792 25.6479C46.8892 25.6575 46.897 25.6692 46.9019 25.6821C46.9068 25.6951 46.9088 25.709 46.9076 25.7228V25.7899C46.9088 25.8037 46.9068 25.8176 46.9019 25.8305C46.897 25.8435 46.8892 25.8552 46.8792 25.8647C46.8698 25.8751 46.8582 25.8832 46.8452 25.8886C46.8323 25.8939 46.8184 25.8964 46.8044 25.8957H46.523C46.4285 25.9049 46.3332 25.8903 46.2458 25.8534C46.1583 25.8164 46.0815 25.7582 46.0222 25.6841Z" fill="#213A74"/>
<path d="M47.5684 25.6402C47.3811 25.426 47.2791 25.1503 47.2819 24.8658V24.6644V24.4657C47.2786 24.181 47.3806 23.9052 47.5684 23.6913C47.7764 23.4969 48.0504 23.3888 48.3351 23.3888C48.6197 23.3888 48.8937 23.4969 49.1017 23.6913C49.2884 23.9059 49.3903 24.1812 49.3882 24.4657C49.3882 24.4966 49.3882 24.5638 49.3882 24.6644C49.3882 24.7651 49.3882 24.8322 49.3882 24.8658C49.3898 25.1501 49.288 25.4253 49.1017 25.6402C48.8937 25.8345 48.6197 25.9426 48.3351 25.9426C48.0504 25.9426 47.7764 25.8345 47.5684 25.6402ZM48.8797 25.4517C49.0261 25.28 49.1042 25.0604 49.0991 24.8348C49.0991 24.8038 49.0991 24.7445 49.0991 24.6593C49.0991 24.5741 49.0991 24.5173 49.0991 24.4837C49.1043 24.2589 49.0262 24.0401 48.8797 23.8694C48.7317 23.7319 48.5371 23.6554 48.3351 23.6554C48.133 23.6554 47.9384 23.7319 47.7904 23.8694C47.6439 24.0401 47.5658 24.2589 47.571 24.4837V24.6593V24.8348C47.5659 25.0604 47.644 25.28 47.7904 25.4517C47.9384 25.5893 48.133 25.6657 48.3351 25.6657C48.5371 25.6657 48.7317 25.5893 48.8797 25.4517Z" fill="#213A74"/>
<path d="M50.3717 26.8095C50.2423 26.7435 50.1341 26.6424 50.0594 26.5178C50.008 26.4305 49.9779 26.3323 49.9716 26.2312C49.9712 26.218 49.9738 26.2049 49.9792 26.1929C49.9845 26.1808 49.9925 26.1701 50.0026 26.1616C50.0124 26.1516 50.024 26.1437 50.0369 26.1384C50.0497 26.1331 50.0635 26.1304 50.0775 26.1306H50.1446C50.1691 26.1291 50.1933 26.1375 50.2117 26.1538C50.2347 26.1743 50.2509 26.2013 50.2582 26.2312C50.3048 26.3711 50.3984 26.4905 50.5231 26.5691C50.6478 26.6477 50.7959 26.6806 50.9422 26.6623C51.1563 26.6803 51.3698 26.6208 51.5437 26.4945C51.6165 26.414 51.6716 26.3191 51.7054 26.216C51.7392 26.1128 51.7509 26.0037 51.7398 25.8957V25.5679C51.6481 25.6912 51.5272 25.7899 51.3881 25.8552C51.2489 25.9205 51.0957 25.9504 50.9422 25.9421C50.7978 25.9536 50.6528 25.9289 50.5203 25.8703C50.3878 25.8118 50.272 25.7211 50.1833 25.6066C50.0158 25.3685 49.9257 25.0846 49.9252 24.7935V24.6592V24.5276C49.9257 24.2365 50.0158 23.9526 50.1833 23.7145C50.272 23.5999 50.3878 23.5093 50.5203 23.4507C50.6528 23.3921 50.7978 23.3674 50.9422 23.3789C51.0952 23.3707 51.2478 23.4001 51.3868 23.4645C51.5259 23.5288 51.647 23.6261 51.7398 23.748V23.5312C51.7388 23.5166 51.7408 23.502 51.7457 23.4882C51.7505 23.4744 51.7582 23.4618 51.7682 23.4512C51.7777 23.4408 51.7893 23.4327 51.8022 23.4274C51.8151 23.422 51.8291 23.4196 51.8431 23.4202H51.9179C51.9327 23.4195 51.9475 23.4218 51.9613 23.4271C51.9751 23.4325 51.9876 23.4406 51.9981 23.4511C52.0085 23.4615 52.0167 23.4741 52.022 23.4879C52.0273 23.5017 52.0297 23.5164 52.0289 23.5312V25.8415C52.0449 26.1277 51.961 26.4105 51.7915 26.6417C51.6842 26.7488 51.5544 26.8305 51.4115 26.881C51.2685 26.9315 51.1162 26.9494 50.9654 26.9334C50.7601 26.9455 50.5551 26.9027 50.3717 26.8095ZM51.5333 25.4181C51.6607 25.2486 51.7328 25.0441 51.7398 24.8322C51.7398 24.7986 51.7398 24.7418 51.7398 24.6592C51.7398 24.5766 51.7398 24.5198 51.7398 24.4889C51.7328 24.277 51.6607 24.0724 51.5333 23.9029C51.4674 23.8175 51.3818 23.7494 51.2838 23.7045C51.1858 23.6595 51.0783 23.639 50.9706 23.6448C50.8641 23.6356 50.7569 23.653 50.6587 23.6954C50.5606 23.7377 50.4744 23.8037 50.4079 23.8874C50.282 24.0733 50.2145 24.2927 50.2143 24.5173V24.6489V24.7831C50.215 25.0076 50.2824 25.2268 50.4079 25.413C50.4744 25.4967 50.5606 25.5627 50.6587 25.605C50.7569 25.6474 50.8641 25.6647 50.9706 25.6556C51.0765 25.6638 51.1829 25.6465 51.2808 25.6052C51.3787 25.5639 51.4653 25.4997 51.5333 25.4181Z" fill="#213A74"/>
<path d="M52.8291 25.8648C52.8196 25.8548 52.8122 25.843 52.8074 25.8302C52.8025 25.8173 52.8002 25.8036 52.8007 25.7899V23.5364C52.7998 23.5071 52.8099 23.4785 52.8291 23.4564C52.8393 23.4463 52.8513 23.4383 52.8647 23.433C52.878 23.4276 52.8922 23.4251 52.9066 23.4254H52.9814C52.9962 23.4247 53.011 23.427 53.0248 23.4324C53.0386 23.4377 53.0511 23.4458 53.0615 23.4563C53.072 23.4667 53.0802 23.4793 53.0855 23.4931C53.0908 23.5069 53.0932 23.5216 53.0924 23.5364V23.7481C53.1564 23.6366 53.2516 23.5462 53.3662 23.488C53.4808 23.4297 53.6099 23.4062 53.7377 23.4203H53.9133C53.927 23.4198 53.9407 23.422 53.9536 23.4269C53.9664 23.4318 53.9782 23.4392 53.9881 23.4486C54.0074 23.4697 54.0176 23.4975 54.0165 23.5261V23.5906C54.0172 23.6048 54.0151 23.6189 54.0102 23.6322C54.0053 23.6455 53.9978 23.6577 53.9881 23.6681C53.9782 23.6775 53.9664 23.6849 53.9536 23.6898C53.9407 23.6947 53.927 23.6969 53.9133 23.6965H53.7093C53.6265 23.6894 53.5432 23.7005 53.4651 23.729C53.3871 23.7575 53.3162 23.8027 53.2574 23.8615C53.1987 23.9202 53.1535 23.9911 53.125 24.0692C53.0964 24.1472 53.0853 24.2306 53.0924 24.3134V25.7847C53.093 25.7987 53.0906 25.8127 53.0853 25.8256C53.0799 25.8385 53.0718 25.8501 53.0614 25.8596C53.051 25.8701 53.0385 25.8782 53.0247 25.8836C53.0109 25.8889 52.9962 25.8913 52.9814 25.8906H52.9169C52.9013 25.8931 52.8853 25.8921 52.8701 25.8876C52.8549 25.8832 52.8409 25.8753 52.8291 25.8648Z" fill="#213A74"/>
<path d="M54.6567 25.8466C54.533 25.7886 54.4263 25.6997 54.347 25.5885C54.2712 25.4852 54.2304 25.3604 54.2308 25.2323C54.2296 25.1319 54.2524 25.0327 54.2973 24.9428C54.3422 24.853 54.4079 24.7753 54.489 24.716C54.6912 24.5712 54.928 24.4822 55.1756 24.4579L55.9267 24.3546V24.1869C55.9305 24.1126 55.9181 24.0384 55.8905 23.9693C55.8628 23.9003 55.8206 23.838 55.7667 23.7868C55.6271 23.6833 55.4547 23.6337 55.2814 23.6474C55.143 23.6422 55.0057 23.6743 54.8839 23.7403C54.7926 23.7903 54.7228 23.872 54.6877 23.97C54.679 23.9994 54.663 24.026 54.6412 24.0475C54.6218 24.0616 54.5982 24.0689 54.5741 24.0681H54.507C54.4931 24.0683 54.4793 24.0656 54.4664 24.0603C54.4536 24.055 54.4419 24.0471 54.4322 24.0371C54.4223 24.0279 54.4144 24.0167 54.4091 24.0042C54.4038 23.9918 54.4011 23.9784 54.4012 23.9649C54.4065 23.8712 54.4398 23.7813 54.4967 23.7067C54.5722 23.5979 54.6733 23.5093 54.791 23.4486C54.9437 23.3751 55.112 23.3397 55.2814 23.3454C55.4118 23.3318 55.5437 23.3464 55.6679 23.3883C55.7922 23.4301 55.906 23.4982 56.0016 23.588C56.1447 23.7501 56.2212 23.9603 56.2159 24.1765V25.7563C56.2163 25.77 56.2141 25.7837 56.2092 25.7966C56.2043 25.8094 56.1969 25.8212 56.1875 25.8312C56.1775 25.8415 56.1655 25.8497 56.1521 25.855C56.1387 25.8604 56.1244 25.8628 56.11 25.8621H56.0145C56.0005 25.8628 55.9866 25.8603 55.9736 25.855C55.9607 25.8496 55.9491 25.8415 55.9397 25.8312C55.9296 25.8216 55.9219 25.8099 55.917 25.7969C55.9121 25.784 55.9101 25.7701 55.9113 25.7563V25.5343C55.8303 25.643 55.7251 25.7314 55.6041 25.7924C55.4375 25.8717 55.254 25.9089 55.0697 25.9008C54.9298 25.9138 54.7886 25.8953 54.6567 25.8466ZM55.6893 25.4388C55.7685 25.35 55.8292 25.2462 55.8677 25.1336C55.9063 25.021 55.922 24.9019 55.9138 24.7831V24.6231L55.2995 24.7083C55.0927 24.7262 54.8921 24.7878 54.7109 24.889C54.6522 24.9208 54.6029 24.9676 54.5681 25.0246C54.5332 25.0816 54.5141 25.1468 54.5125 25.2136C54.5109 25.2804 54.527 25.3464 54.5591 25.405C54.5913 25.4636 54.6383 25.5126 54.6955 25.5472C54.8501 25.6407 55.0311 25.6807 55.2107 25.6611C55.3903 25.6415 55.5584 25.5634 55.6893 25.4388Z" fill="#213A74"/>
<path d="M57.1967 25.8647C57.1873 25.8547 57.1799 25.843 57.175 25.8301C57.1701 25.8173 57.1679 25.8036 57.1683 25.7898V23.7015H56.7476C56.719 23.7026 56.6912 23.6924 56.6701 23.6731C56.6605 23.6628 56.653 23.6506 56.6481 23.6373C56.6432 23.624 56.6411 23.6099 56.6418 23.5957V23.5312C56.6406 23.517 56.6425 23.5027 56.6474 23.4893C56.6523 23.4759 56.6601 23.4638 56.6702 23.4537C56.6802 23.4437 56.6924 23.4359 56.7057 23.431C56.7191 23.4261 56.7334 23.4242 56.7476 23.4253H57.1683V23.1672C57.1576 22.9666 57.2129 22.7681 57.3258 22.6019C57.3964 22.5259 57.4839 22.4677 57.5812 22.4318C57.6785 22.3959 57.7829 22.3834 57.8859 22.3954H58.1441C58.1579 22.3942 58.1718 22.3962 58.1847 22.4011C58.1977 22.406 58.2094 22.4138 58.2189 22.4238C58.2284 22.4337 58.2358 22.4455 58.2407 22.4584C58.2456 22.4712 58.2478 22.4849 58.2473 22.4986V22.5658C58.2478 22.5795 58.2456 22.5932 58.2407 22.6061C58.2358 22.6189 58.2284 22.6307 58.2189 22.6406C58.2094 22.6506 58.1977 22.6584 58.1847 22.6633C58.1718 22.6682 58.1579 22.6702 58.1441 22.669H57.8859C57.824 22.6623 57.7614 22.6703 57.7031 22.6923C57.6448 22.7142 57.5925 22.7496 57.5504 22.7955C57.4793 22.9153 57.4469 23.0541 57.4574 23.193V23.4511H58.0795C58.108 23.4506 58.1356 23.4607 58.157 23.4795C58.1763 23.5006 58.1865 23.5284 58.1854 23.557V23.6215C58.1861 23.6357 58.1839 23.6498 58.179 23.6631C58.1742 23.6764 58.1667 23.6886 58.157 23.699C58.1356 23.7178 58.108 23.7279 58.0795 23.7273H57.4523V25.8156C57.4533 25.8292 57.4515 25.8428 57.447 25.8557C57.4426 25.8686 57.4356 25.8804 57.4265 25.8905C57.4163 25.9006 57.4042 25.9086 57.3909 25.9139C57.3776 25.9193 57.3634 25.9218 57.349 25.9215H57.269C57.2535 25.918 57.2389 25.9112 57.2264 25.9013C57.2139 25.8915 57.2037 25.879 57.1967 25.8647Z" fill="#213A74"/>
<path d="M58.6345 22.9943C58.6344 22.9827 58.6366 22.9713 58.6411 22.9606C58.6455 22.95 58.6521 22.9404 58.6603 22.9323L58.9882 22.5374C59.0081 22.51 59.0336 22.4871 59.063 22.4703C59.0945 22.4559 59.1292 22.4497 59.1637 22.4522H59.3702C59.3825 22.4505 59.395 22.4516 59.4067 22.4556C59.4185 22.4595 59.4291 22.4661 59.4379 22.4749C59.4466 22.4836 59.4532 22.4943 59.4572 22.506C59.4611 22.5178 59.4623 22.5303 59.4605 22.5425C59.4609 22.5531 59.459 22.5636 59.455 22.5734C59.451 22.5832 59.445 22.592 59.4373 22.5993L58.9211 23.0227C58.9009 23.0377 58.8793 23.0506 58.8565 23.0614C58.8291 23.0647 58.8014 23.0647 58.7739 23.0614H58.7275C58.6603 23.0691 58.6345 23.0459 58.6345 22.9943ZM58.6732 25.8647C58.6638 25.8547 58.6564 25.843 58.6515 25.8301C58.6466 25.8173 58.6444 25.8036 58.6449 25.7898V23.5312C58.6437 23.5026 58.654 23.4748 58.6732 23.4537C58.6836 23.4441 58.6958 23.4366 58.7091 23.4317C58.7224 23.4268 58.7365 23.4247 58.7507 23.4253H58.8307C58.8444 23.4249 58.8581 23.4271 58.871 23.432C58.8839 23.4369 58.8956 23.4443 58.9056 23.4537C58.9155 23.4639 58.9232 23.4761 58.9281 23.4894C58.933 23.5028 58.935 23.517 58.934 23.5312V25.7898C58.9351 25.8036 58.9331 25.8175 58.9282 25.8305C58.9233 25.8434 58.9156 25.8551 58.9056 25.8647C58.8961 25.875 58.8845 25.8831 58.8716 25.8885C58.8586 25.8939 58.8447 25.8963 58.8307 25.8957H58.7507C58.7363 25.8965 58.7219 25.8942 58.7085 25.8888C58.6951 25.8835 58.6831 25.8752 58.6732 25.8647Z" fill="#213A74"/>
<path d="M59.9458 25.8466C59.8221 25.7886 59.7154 25.6997 59.636 25.5885C59.5585 25.486 59.5167 25.3608 59.5173 25.2323C59.5156 25.1318 59.5382 25.0324 59.5832 24.9426C59.6281 24.8527 59.6941 24.775 59.7754 24.716C59.9772 24.5703 60.2143 24.4812 60.4621 24.4579L61.2106 24.3546V24.1869C61.2147 24.1128 61.2027 24.0387 61.1755 23.9696C61.1484 23.9006 61.1066 23.8382 61.0532 23.7867C60.9125 23.6833 60.7394 23.6338 60.5653 23.6474C60.4269 23.6422 60.2896 23.6743 60.1678 23.7403C60.0771 23.7911 60.0076 23.8725 59.9716 23.97C59.9626 23.9987 59.9477 24.0251 59.9277 24.0475C59.9072 24.0615 59.8828 24.0687 59.858 24.0681H59.7909C59.7637 24.0675 59.7379 24.0564 59.7186 24.0371C59.6994 24.0179 59.6883 23.992 59.6877 23.9649C59.6917 23.8709 59.7251 23.7807 59.7832 23.7067C59.8575 23.5969 59.9589 23.508 60.0774 23.4486C60.2292 23.3748 60.3967 23.3394 60.5653 23.3453C60.6961 23.332 60.8282 23.3468 60.9529 23.3887C61.0775 23.4305 61.1918 23.4985 61.2881 23.588C61.4305 23.7504 61.5061 23.9606 61.4997 24.1765V25.7563C61.5009 25.7701 61.4989 25.784 61.494 25.7969C61.4891 25.8099 61.4814 25.8216 61.4714 25.8311C61.4619 25.8415 61.4503 25.8496 61.4374 25.855C61.4244 25.8603 61.4105 25.8628 61.3965 25.8621H61.3165C61.3021 25.8628 61.2878 25.8604 61.2744 25.855C61.261 25.8497 61.249 25.8415 61.239 25.8311C61.2296 25.8212 61.2222 25.8094 61.2173 25.7966C61.2124 25.7837 61.2102 25.77 61.2106 25.7563V25.5343C61.1307 25.643 61.0264 25.7314 60.906 25.7924C60.7393 25.8711 60.556 25.9083 60.3717 25.9008C60.2275 25.9161 60.0816 25.8975 59.9458 25.8466ZM60.9783 25.4388C61.0566 25.3495 61.1165 25.2456 61.1546 25.1331C61.1927 25.0206 61.2082 24.9017 61.2003 24.7831V24.6231L60.5885 24.7083C60.3816 24.7254 60.1809 24.787 60 24.889C59.9408 24.9198 59.8911 24.966 59.8561 25.0228C59.8211 25.0797 59.8021 25.1449 59.8012 25.2116C59.7985 25.2786 59.8139 25.3451 59.8457 25.4041C59.8775 25.4632 59.9245 25.5126 59.9819 25.5472C60.1369 25.6409 60.3184 25.681 60.4985 25.6614C60.6785 25.6418 60.8471 25.5636 60.9783 25.4388Z" fill="#213A74"/>
<path d="M27.953 8.31438C28.7357 8.31438 29.3702 7.67991 29.3702 6.89724C29.3702 6.11458 28.7357 5.4801 27.953 5.4801C27.1704 5.4801 26.5359 6.11458 26.5359 6.89724C26.5359 7.67991 27.1704 8.31438 27.953 8.31438Z" stroke="#213A74" stroke-width="0.442059" stroke-miterlimit="10"/>
<path d="M0.934448 11.9515V0.934448H11.9592" stroke="#3463AC" stroke-width="1.76824" stroke-miterlimit="10"/>
<path d="M32.0754 12.2457V32.0754H11.9592" stroke="#3463AC" stroke-width="1.76824" stroke-miterlimit="10"/>
<path d="M16.3784 24.7987C21.8585 24.7987 26.301 20.3596 26.301 14.8838C26.301 9.40804 21.8585 4.96902 16.3784 4.96902C10.8984 4.96902 6.45587 9.40804 6.45587 14.8838C6.45587 20.3596 10.8984 24.7987 16.3784 24.7987Z" stroke="#3463AC" stroke-width="1.76824" stroke-miterlimit="10"/>
<path d="M16.3784 21.0221C19.77 21.0221 22.5194 18.2739 22.5194 14.8838C22.5194 11.4937 19.77 8.74542 16.3784 8.74542C12.9869 8.74542 10.2375 11.4937 10.2375 14.8838C10.2375 18.2739 12.9869 21.0221 16.3784 21.0221Z" stroke="#213A74" stroke-width="0.884119" stroke-miterlimit="10"/>
</svg>
